<!-- Generator: Adobe Illustrator 12.0.1, SVG Export Plug-In . SVG Version: 6.00 Build 51448)  -->
<svg xmlns:rdf="http://www.w3.org/1999/02/22-rdf-syntax-ns#" style="enable-background:new 0 0 169.667 81.087;" xmlns="http://www.w3.org/2000/svg" xml:space="preserve" height="81.087" viewBox="0 0 169.667 81.087" width="169.667" version="1.1" xmlns:cc="http://creativecommons.org/ns#" xmlns:dc="http://purl.org/dc/elements/1.1/"><metadata><rdf:RDF><cc:Work rdf:about=""><dc:format>image/svg+xml</dc:format><dc:type rdf:resource="http://purl.org/dc/dcmitype/StillImage"/><dc:title/></cc:Work></rdf:RDF></metadata>
<path d="m126.78313,71.412325,0-16.32765,2.22299,0,8.5538,12.8136,0-12.8136,2.0786,0,0,16.3286-2.223,0-8.5538-12.81455,0,12.81455-2.07859,0,0-0.00095z"/><path d="m143.35302,71.412325,0-16.32765,2.16695,0,0,6.70985,8.44645,0,0-6.70985,2.16695,0,0,16.3286-2.16695,0,0-7.6893-8.44645,0,0,7.6893-2.16695,0,0-0.00095z"/>
<path d="m165.42532,74.247125,0,1.4402-8.10445,0c-0.0114-0.36195,0.0475-0.70965,0.1767-1.045,0.20805-0.551,0.53865-1.0925,0.99655-1.6264,0.456-0.5339,1.1115-1.15045,1.96555-1.8506,1.3262-1.0944,2.22585-1.95985,2.698-2.59635,0.4731-0.6365,0.70965-1.2388,0.70965-1.80785,0-0.5947-0.21374-1.0963-0.64219-1.5048-0.42656-0.4085-0.98421-0.61275-1.672-0.61275-0.7277,0-1.30816,0.21755-1.7442,0.6536-0.43605,0.4351-0.65646,1.0393-0.66215,1.80975l-1.54376-0.1634c0.10545-1.15425,0.50446-2.0349,1.197-2.64005,0.69256-0.60515,1.6207-0.90725,2.7873-0.90725,1.1761,0,2.109,0.32585,2.79396,0.97755,0.68684,0.6517,1.02979,1.45825,1.02979,2.4225,0,0.49115-0.0998,0.97185-0.30115,1.44495-0.2014,0.4731-0.53485,0.9709-1.00035,1.4953-0.46645,0.52345-1.2388,1.2426-2.318,2.15555-0.90345,0.75715-1.4839,1.2711-1.74135,1.53995-0.25745,0.27075-0.4712,0.5415-0.63935,0.81415h6.01445v0.00095z"/>
<path d="M100.625,4.96875l-32.6875,18.84375-24.4375-10.875-0.6875,1.46875,24.34375,10.84375-3.8125,36.28125-27.25,5.78125,0.3125,1.625,28.40625-6.03125,3.9375-37.65625,31.875-18.4375,31.84375,18.375v27.75h1.59375v-28.6875l-33.4375-19.28125z" transform="translate(-5.830366e-6,0)"/>
<path d="m27.128125,18.355775,0-16.3286,2.223,0,8.5538,12.8136,0-12.8136,2.0786,0,0,16.3286-2.223,0-8.55475-12.8155,0,12.81455-2.07765,0,0,0.00095z"/>
<path d="m4.241675,79.059825,0-16.3286,2.16695,0,0,6.70985,8.44645,0,0-6.70985,2.16695,0,0,16.3286-2.16695,0,0-7.6893-8.44645,0,0,7.6893-2.16695,0z"/><path d="m20.603525,79.059825,0-16.3286,2.223,0,8.5538,12.8136,0-12.8136,2.0786,0,0,16.3286-2.223,0-8.55475-12.81455,0,12.81455-2.07765,0z"/>
<path d="M24.21875,18.59375l-16.875,18.71875,13.3125,23,1.375-0.8125-12.6875-22,16.0625-17.8125-1.1875-1.09375z" transform="translate(-5.830366e-6,0)"/>
<path d="M15.891525,38.684825l-1.1875-1.09155,13.67905-15.2,1.23595,1.04405-13.7275,15.2475z"/>
<path d="M61.158075,28.139825l1.615,0.1425-3.0875,29.355-1.615-0.19,3.0875-29.3075z"/>
</svg>
