<svg version="1.1" id="Layer_1" xmlns="http://www.w3.org/2000/svg" xmlns:xlink="http://www.w3.org/1999/xlink" x="0px" y="0px"
	 width="100%" viewBox="0 0 250 250" enable-background="new 0 0 250 250" xml:space="preserve">
<path fill="#FFFFFF" opacity="1.000000" stroke="none" 
	d="
M106.000000,251.000000 
	C71.035469,251.000000 36.070934,251.000000 1.053200,251.000000 
	C1.053200,167.786606 1.053200,84.573174 1.053200,1.000000 
	C26.353094,1.000000 51.707890,1.000000 77.536079,1.277975 
	C78.047668,1.737314 78.085869,1.918678 78.065750,2.549980 
	C78.007431,6.276633 78.007431,9.553349 78.007431,12.721715 
	C84.704788,14.273980 87.929543,16.987860 87.952393,21.545589 
	C88.053093,41.625473 87.995880,61.706150 87.995880,81.980812 
	C84.597603,82.715645 81.403313,83.406364 78.229248,84.092712 
	C78.229248,87.927422 78.229248,91.527267 78.229248,95.105301 
	C80.269852,95.279076 82.079643,95.433189 83.906288,95.988205 
	C84.090492,97.811340 84.257843,99.233574 84.490982,101.214882 
	C95.439323,101.214882 106.054459,101.214882 116.729149,101.665245 
	C116.788704,116.859222 116.788704,131.602844 116.788704,146.701584 
	C111.075867,147.642212 104.673271,147.888412 106.311447,156.467194 
	C98.774071,156.611877 91.666595,156.611877 84.428421,156.611877 
	C84.428421,165.229156 84.428421,173.272461 84.428421,181.352432 
	C89.296043,181.352432 93.850845,181.352432 98.542999,181.352432 
	C98.867195,177.778183 99.160728,174.541901 99.454765,171.300140 
	C105.321243,171.300140 110.760941,171.300140 116.594261,171.300140 
	C116.594261,173.322922 116.594261,175.122986 116.594261,176.923065 
	C116.594261,193.231018 116.594269,209.538971 116.594276,225.846924 
	C116.594284,236.637558 116.594276,236.637558 106.807945,239.523453 
	C106.538910,243.344925 106.269455,247.172455 106.000000,251.000000 
z"/>
<path fill="#FFFFFF" opacity="1.000000" stroke="none" 
	d="
M174.000000,1.000000 
	C199.640656,1.000000 225.281311,1.000000 250.960983,1.000000 
	C250.960983,84.222847 250.960983,167.445724 250.960983,251.000000 
	C216.313141,251.000000 181.625229,251.000000 146.035202,250.730026 
	C145.133087,246.813400 145.133087,243.166748 145.133087,239.370758 
	C143.735092,239.010559 142.303925,238.327515 140.874222,238.330566 
	C135.982285,238.340958 135.095520,235.855682 135.198761,231.386383 
	C135.510300,217.899445 135.311218,204.400742 135.311218,190.906616 
	C135.311218,184.451920 135.311234,177.997208 135.311234,171.378616 
	C141.356171,171.378616 146.906143,171.378616 152.674164,171.378616 
	C152.932388,174.897842 153.169922,178.134995 153.407837,181.377319 
	C158.527374,181.377319 163.096939,181.377319 167.561783,181.377319 
	C167.561783,172.983994 167.561783,164.926361 167.561783,156.336029 
	C159.888809,156.336029 152.579559,156.336029 145.262909,155.935486 
	C147.367310,146.819931 139.604843,148.353729 135.000870,146.327118 
	C135.000870,129.074921 135.000870,112.033409 135.416229,95.089966 
	C137.520416,95.321533 139.209229,95.455025 140.913513,95.989716 
	C141.094238,97.812881 141.259506,99.234848 141.422882,100.640373 
	C154.382172,100.640373 166.929001,100.640373 179.410919,100.640373 
	C181.144943,90.342010 180.632690,89.249306 174.083740,88.566483 
	C174.001114,86.866348 174.001114,85.563385 174.001114,84.366676 
	C172.470993,83.829536 171.239990,83.397400 170.002777,82.498871 
	C169.996567,61.491684 169.996567,40.950901 169.996567,20.594004 
	C173.781021,19.737429 176.792053,19.055906 179.716995,18.393875 
	C179.716995,14.524671 179.716995,11.090185 179.716995,7.229227 
	C177.685822,7.134869 175.908875,7.052322 174.054001,6.571808 
	C173.929703,4.825135 173.883347,3.476429 173.900024,1.849015 
	C173.975357,1.380204 173.987671,1.190102 174.000000,1.000000 
z"/>
<path fill="#020202" opacity="1.000000" stroke="none" 
	d="
M145.270294,156.336029 
	C152.579559,156.336029 159.888809,156.336029 167.561783,156.336029 
	C167.561783,164.926361 167.561783,172.983994 167.561783,181.377319 
	C163.096939,181.377319 158.527374,181.377319 153.407837,181.377319 
	C153.169922,178.134995 152.932388,174.897842 152.674164,171.378616 
	C146.906143,171.378616 141.356171,171.378616 135.311234,171.378616 
	C135.311234,177.997208 135.311218,184.451920 135.311218,190.906616 
	C135.311218,204.400742 135.510300,217.899445 135.198761,231.386383 
	C135.095520,235.855682 135.982285,238.340958 140.874222,238.330566 
	C142.303925,238.327515 143.735092,239.010559 145.133087,239.370758 
	C145.133087,243.166748 145.133087,246.813400 145.566544,250.730026 
	C145.555557,251.000000 145.111099,251.000000 144.147278,250.609711 
	C132.406662,250.151993 121.185432,250.067886 109.964142,250.059616 
	C109.309662,250.059128 108.654724,250.672379 108.000000,251.000000 
	C107.555557,251.000000 107.111107,251.000000 106.333328,251.000000 
	C106.269455,247.172455 106.538910,243.344925 106.807945,239.523453 
	C116.594276,236.637558 116.594284,236.637558 116.594276,225.846924 
	C116.594269,209.538971 116.594261,193.231018 116.594261,176.923065 
	C116.594261,175.122986 116.594261,173.322922 116.594261,171.300140 
	C110.760941,171.300140 105.321243,171.300140 99.454765,171.300140 
	C99.160728,174.541901 98.867195,177.778183 98.542999,181.352432 
	C93.850845,181.352432 89.296043,181.352432 84.428421,181.352432 
	C84.428421,173.272461 84.428421,165.229156 84.428421,156.611877 
	C91.666595,156.611877 98.774071,156.611877 106.774567,156.621429 
	C120.201820,156.532669 132.736053,156.434357 145.270294,156.336029 
z"/>
<path fill="#FFFFFF" opacity="1.000000" stroke="none" 
	d="
M117.000000,1.000000 
	C122.688042,1.000000 128.376083,1.000000 134.545273,1.282225 
	C135.067047,1.748376 135.107666,1.932302 135.090210,2.564803 
	C135.032150,6.285925 135.032150,9.558472 135.032150,12.711392 
	C143.074295,14.580120 145.074158,17.113485 145.047653,25.050404 
	C145.029922,30.360939 144.944427,35.671249 144.699524,41.074028 
	C144.252014,41.309925 144.073105,41.520496 143.509338,41.855927 
	C133.047729,41.857681 123.049873,41.801628 113.046844,41.293030 
	C113.041679,34.113174 113.041679,27.385870 113.041679,20.809414 
	C124.350319,17.803032 124.350319,17.803032 122.282639,6.973202 
	C120.656242,6.973202 118.886703,6.973202 117.035240,6.576864 
	C116.906960,4.834580 116.860588,3.488632 116.880844,1.860294 
	C116.964989,1.385269 116.982498,1.192635 117.000000,1.000000 
z"/>
<path fill="#7F7F7F" opacity="1.000000" stroke="none" 
	d="
M116.531342,1.000000 
	C116.982498,1.192635 116.964989,1.385269 116.425392,1.822311 
	C103.310234,2.077826 90.717155,2.088934 78.124077,2.100042 
	C78.085869,1.918678 78.047668,1.737314 78.004738,1.277975 
	C90.687561,1.000000 103.375122,1.000000 116.531342,1.000000 
z"/>
<path fill="#7F7F7F" opacity="1.000000" stroke="none" 
	d="
M135.148270,2.116227 
	C135.107666,1.932302 135.067047,1.748376 135.013214,1.282225 
	C147.687561,1.000000 160.375122,1.000000 173.531342,1.000000 
	C173.987671,1.190102 173.975357,1.380204 173.443237,1.809799 
	C160.331711,2.071604 147.739990,2.093915 135.148270,2.116227 
z"/>
<path fill="#7F7F7F" opacity="1.000000" stroke="none" 
	d="
M108.468658,251.000000 
	C108.654724,250.672379 109.309662,250.059128 109.964142,250.059616 
	C121.185432,250.067886 132.406662,250.151993 143.813965,250.609711 
	C132.312439,251.000000 120.624878,251.000000 108.468658,251.000000 
z"/>
<path fill="#020202" opacity="1.000000" stroke="none" 
	d="
M135.090210,2.564803 
	C147.739990,2.093915 160.331711,2.071604 173.380219,2.088508 
	C173.883347,3.476429 173.929703,4.825135 173.975494,6.997150 
	C173.974915,9.451153 173.974915,11.081845 173.974915,12.738905 
	C170.375366,13.523232 167.200317,14.215061 164.074860,14.896087 
	C164.074860,37.516365 164.074860,59.652115 164.074860,82.160408 
	C166.112015,82.436714 168.060501,82.700989 170.008987,82.965271 
	C171.239990,83.397400 172.470993,83.829536 174.001114,84.366676 
	C174.001114,85.563385 174.001114,86.866348 173.993378,89.014999 
	C173.985657,91.608772 173.985657,93.356873 173.985657,95.588524 
	C162.479416,95.588524 151.688736,95.588524 140.898056,95.588516 
	C139.209229,95.455025 137.520416,95.321533 135.538925,94.649612 
	C135.170303,90.798203 135.094345,87.485222 135.412994,84.079819 
	C137.558701,83.636703 139.297104,83.093376 141.063660,82.977013 
	C144.333206,82.761650 145.798981,81.348984 145.114838,77.571152 
	C145.158646,73.410347 145.060226,69.693672 145.004517,65.583031 
	C144.995987,64.136925 144.944733,63.084789 144.979553,61.600250 
	C145.065613,59.692596 145.065613,58.217350 145.065613,56.653183 
	C132.175247,56.653183 119.644058,56.653183 107.004318,56.653183 
	C107.004318,60.361553 107.004318,63.680138 106.847221,67.435181 
	C106.803146,71.251251 106.916161,74.630852 106.972420,78.418900 
	C106.539635,84.560822 111.390480,82.159950 114.214272,83.588867 
	C115.215431,84.858826 116.407700,85.810226 116.575317,86.916824 
	C116.967056,89.502991 116.866875,92.163658 116.523735,94.958618 
	C105.350861,95.277824 94.620148,95.432564 83.889442,95.587303 
	C82.079643,95.433189 80.269852,95.279076 78.229248,95.105301 
	C78.229248,91.527267 78.229248,87.927422 78.229248,84.092712 
	C81.403313,83.406364 84.597603,82.715645 87.995880,81.980812 
	C87.995880,61.706150 88.053093,41.625473 87.952393,21.545589 
	C87.929543,16.987860 84.704788,14.273980 78.007431,12.721715 
	C78.007431,9.553349 78.007431,6.276633 78.065750,2.549980 
	C90.717155,2.088934 103.310234,2.077826 116.358765,2.104702 
	C116.860588,3.488632 116.906960,4.834580 116.953415,7.000208 
	C116.953506,9.438904 116.953506,11.057919 116.953506,12.746057 
	C113.382774,13.510029 110.218452,14.187049 107.259766,14.820072 
	C107.259766,24.133913 107.259766,32.977997 107.259766,41.745571 
	C109.428848,41.745571 111.240425,41.745571 113.052010,41.745575 
	C123.049873,41.801628 133.047729,41.857681 143.791565,41.925797 
	C144.654755,41.619125 144.772003,41.300392 144.889236,40.981663 
	C144.944427,35.671249 145.029922,30.360939 145.047653,25.050404 
	C145.074158,17.113485 143.074295,14.580120 135.032150,12.711392 
	C135.032150,9.558472 135.032150,6.285925 135.090210,2.564803 
z"/>
<path fill="#A4A4A4" opacity="1.000000" stroke="none" 
	d="
M135.018402,84.172234 
	C135.094345,87.485222 135.170303,90.798203 135.123566,94.551544 
	C135.000870,112.033409 135.000870,129.074921 135.000870,146.327118 
	C139.604843,148.353729 147.367310,146.819931 145.262909,155.935486 
	C132.736053,156.434357 120.201820,156.532669 107.204468,156.476746 
	C104.673271,147.888412 111.075867,147.642212 116.788704,146.701584 
	C116.788704,131.602844 116.788704,116.859222 116.820908,101.209320 
	C116.890709,98.466736 116.928307,96.630447 116.965904,94.794159 
	C116.866875,92.163658 116.967056,89.502991 116.575317,86.916824 
	C116.407700,85.810226 115.215431,84.858826 114.212708,83.181915 
	C113.821419,77.676285 110.331223,77.987259 107.029182,78.010460 
	C106.916161,74.630852 106.803146,71.251251 107.247345,67.414879 
	C109.535515,66.655975 111.266449,66.353836 113.465820,66.074692 
	C124.276772,66.057465 134.619293,66.017235 144.961792,65.977005 
	C145.060226,69.693672 145.158646,73.410347 144.694427,77.521652 
	C140.372162,78.950096 134.409744,76.774925 135.018402,84.172234 
z"/>
<path fill="#D5D5D5" opacity="1.000000" stroke="none" 
	d="
M116.523735,94.958618 
	C116.928307,96.630447 116.890709,98.466736 116.761353,100.758957 
	C106.054459,101.214882 95.439323,101.214882 84.490982,101.214882 
	C84.257843,99.233574 84.090492,97.811340 83.906288,95.988205 
	C94.620148,95.432564 105.350861,95.277824 116.523735,94.958618 
z"/>
<path fill="#D4D4D4" opacity="1.000000" stroke="none" 
	d="
M170.002777,82.498871 
	C168.060501,82.700989 166.112015,82.436714 164.074860,82.160408 
	C164.074860,59.652115 164.074860,37.516365 164.074860,14.896087 
	C167.200317,14.215061 170.375366,13.523232 173.974915,12.738905 
	C173.974915,11.081845 173.974915,9.451153 174.053436,7.395118 
	C175.908875,7.052322 177.685822,7.134869 179.716995,7.229227 
	C179.716995,11.090185 179.716995,14.524671 179.716995,18.393875 
	C176.792053,19.055906 173.781021,19.737429 169.996567,20.594004 
	C169.996567,40.950901 169.996567,61.491684 170.002777,82.498871 
z"/>
<path fill="#D5D5D5" opacity="1.000000" stroke="none" 
	d="
M140.913513,95.989716 
	C151.688736,95.588524 162.479416,95.588524 173.985657,95.588524 
	C173.985657,93.356873 173.985657,91.608772 174.076019,89.412170 
	C180.632690,89.249306 181.144943,90.342010 179.410919,100.640373 
	C166.929001,100.640373 154.382172,100.640373 141.422882,100.640373 
	C141.259506,99.234848 141.094238,97.812881 140.913513,95.989716 
z"/>
<path fill="#D5D5D5" opacity="1.000000" stroke="none" 
	d="
M113.046844,41.293026 
	C111.240425,41.745571 109.428848,41.745571 107.259766,41.745571 
	C107.259766,32.977997 107.259766,24.133913 107.259766,14.820072 
	C110.218452,14.187049 113.382774,13.510029 116.953506,12.746057 
	C116.953506,11.057919 116.953506,9.438904 117.035332,7.396545 
	C118.886703,6.973202 120.656242,6.973202 122.282639,6.973202 
	C124.350319,17.803032 124.350319,17.803032 113.041679,20.809414 
	C113.041679,27.385870 113.041679,34.113174 113.046844,41.293026 
z"/>
<path fill="#D5D5D5" opacity="1.000000" stroke="none" 
	d="
M144.699524,41.074028 
	C144.772003,41.300392 144.654755,41.619125 144.255310,41.867981 
	C144.073105,41.520496 144.252014,41.309925 144.699524,41.074028 
z"/>
<path fill="#C8C8C8" opacity="1.000000" stroke="none" 
	d="
M112.997391,66.051697 
	C111.266449,66.353836 109.535515,66.655975 107.404449,66.978416 
	C107.004318,63.680138 107.004318,60.361553 107.004318,56.653183 
	C119.644058,56.653183 132.175247,56.653183 145.065613,56.653183 
	C145.065613,58.217350 145.065613,59.692596 144.518387,61.572926 
	C135.040436,61.971077 126.107948,62.062916 117.179939,61.903591 
	C114.059921,61.847912 112.381157,62.633999 112.997391,66.051697 
z"/>
<path fill="#FFFFFF" opacity="1.000000" stroke="none" 
	d="
M113.465820,66.074692 
	C112.381157,62.633999 114.059921,61.847912 117.179939,61.903591 
	C126.107948,62.062916 135.040436,61.971077 144.432312,62.005329 
	C144.944733,63.084789 144.995987,64.136925 145.004517,65.583038 
	C134.619293,66.017235 124.276772,66.057465 113.465820,66.074692 
z"/>
<path fill="#F6F6F6" opacity="1.000000" stroke="none" 
	d="
M135.412994,84.079819 
	C134.409744,76.774925 140.372162,78.950096 144.552185,77.965790 
	C145.798981,81.348984 144.333206,82.761650 141.063660,82.977013 
	C139.297104,83.093376 137.558701,83.636703 135.412994,84.079819 
z"/>
<path fill="#D4D4D4" opacity="1.000000" stroke="none" 
	d="
M106.972420,78.418900 
	C110.331223,77.987259 113.821419,77.676285 113.938248,82.933884 
	C111.390480,82.159950 106.539635,84.560822 106.972420,78.418900 
z"/>
</svg>