<svg version="1.1" id="Layer_1" xmlns="http://www.w3.org/2000/svg" xmlns:xlink="http://www.w3.org/1999/xlink" x="0px" y="0px"
	 width="100%" viewBox="0 0 250 250" enable-background="new 0 0 250 250" xml:space="preserve">
<path fill="#FFFFFF" opacity="1.000000" stroke="none" 
	d="
M146.000000,251.000000 
	C97.333336,251.000000 49.166672,251.000000 1.000006,251.000000 
	C1.000004,167.666672 1.000004,84.333351 1.000002,1.000018 
	C84.333321,1.000012 167.666641,1.000012 250.999969,1.000006 
	C250.999969,84.333313 250.999969,167.666626 250.999985,250.999969 
	C216.166672,251.000000 181.333328,251.000000 146.000000,251.000000 
M132.061569,143.772614 
	C132.031403,134.365448 131.859024,124.954468 132.111465,115.554893 
	C132.153366,113.994301 134.038345,112.476479 135.091217,110.952431 
	C135.661652,110.126717 136.273468,109.329582 136.866608,108.519554 
	C135.994629,107.993607 135.122665,107.467651 134.089981,106.090675 
	C133.552979,105.448471 133.032806,104.266228 132.476349,104.248901 
	C127.721741,104.100861 122.960548,104.164070 118.201332,104.164070 
	C117.923225,104.692131 117.645119,105.220184 117.367012,105.748245 
	C119.013672,107.150154 120.660332,108.552055 122.846626,110.413383 
	C122.846626,120.971207 122.846626,132.437469 122.846626,143.087463 
	C120.923691,144.662003 119.465324,145.856140 118.006966,147.050293 
	C118.992264,147.759140 119.977570,148.467987 121.018600,149.982803 
	C121.786072,150.631332 122.524017,151.793854 123.326103,151.839951 
	C126.911591,152.045959 130.523682,152.068420 134.107086,151.847504 
	C135.083969,151.787277 135.994354,150.648727 136.935257,150.005066 
	C136.035110,148.987549 135.134964,147.970032 134.070938,146.250046 
	C133.407364,145.722702 132.743774,145.195374 132.061569,143.772614 
M144.665649,193.153336 
	C144.246201,192.730057 143.828812,191.939362 143.406998,191.937012 
	C131.501740,191.870483 119.596031,191.883514 107.297691,191.883514 
	C107.297691,194.329910 106.961662,196.373550 107.409248,198.228073 
	C107.738167,199.590927 109.093170,200.706161 110.104233,202.710724 
	C111.597252,203.613342 113.090271,204.515945 115.480896,205.961212 
	C115.291740,198.713821 119.216553,199.619446 122.969353,200.970871 
	C122.969353,211.220200 122.969353,221.469528 122.969353,230.561615 
	C120.746628,232.240173 119.362007,233.285828 117.977394,234.331467 
	C118.918625,235.131317 119.859856,235.931168 120.985161,237.437210 
	C121.844963,238.200623 122.671440,239.574432 123.570236,239.623489 
	C127.832817,239.856140 132.115128,239.727448 136.390411,239.727448 
	C136.699249,239.243393 137.008087,238.759338 137.316925,238.275284 
	C136.257690,237.165909 135.198456,236.056519 134.038895,234.272430 
	C133.361664,233.507523 132.684433,232.742615 131.974808,231.043686 
	C131.974808,220.833237 131.974808,210.622787 131.974808,199.997650 
	C134.780579,199.997650 136.893967,199.997650 139.258636,200.594543 
	C140.169952,201.044144 141.081284,201.493744 142.087524,202.727280 
	C143.678177,203.584290 145.268814,204.441284 146.859467,205.298294 
	C147.170761,204.853394 147.482040,204.408478 147.793335,203.963577 
	C146.662735,200.672653 150.572128,196.086365 144.665649,193.153336 
M145.984131,56.046368 
	C145.981674,47.074612 145.976379,38.102852 145.978622,29.131096 
	C145.979218,26.707508 145.348267,24.018402 149.147110,23.587885 
	C149.824066,23.511168 150.978271,21.653030 150.754333,21.041225 
	C150.428162,20.150127 149.051910,19.643389 147.965775,18.209633 
	C147.437866,17.744484 146.918732,16.887569 146.380692,16.875542 
	C141.645081,16.769680 136.906113,16.814188 132.168121,16.814188 
	C131.880768,17.237869 131.593399,17.661551 131.306046,18.085232 
	C132.272461,19.081600 133.250320,20.067205 134.201996,21.077465 
	C135.096603,22.027117 136.653000,22.955872 136.722366,23.975208 
	C137.009369,28.192457 136.842743,32.440578 136.842743,36.817223 
	C130.221207,36.817223 124.135307,36.817223 118.005989,35.911861 
	C117.994408,34.599037 117.887810,33.278786 117.989746,31.974836 
	C118.255135,28.579964 116.480972,24.687252 121.896255,22.928175 
	C124.096954,22.213310 123.522720,19.256163 120.098145,18.156534 
	C119.720642,17.714161 119.349823,16.893583 118.964607,16.886766 
	C114.048645,16.799778 109.130623,16.829416 102.511040,16.829416 
	C104.334839,18.993229 105.188347,20.000444 106.035805,21.012716 
	C107.031097,22.201561 108.856758,23.377016 108.882553,24.588917 
	C109.108734,35.217937 109.013458,45.853794 109.013458,56.402775 
	C104.057999,57.664589 104.057999,57.664589 104.722771,61.448410 
	C109.777565,61.448410 114.854614,61.448410 119.931656,61.448410 
	C120.236595,60.979668 120.541542,60.510921 120.846481,60.042179 
	C119.088295,58.546494 117.330109,57.050812 115.527695,55.517506 
	C115.527695,51.325832 115.527695,46.763737 115.527695,42.136452 
	C122.635513,42.136452 129.429672,42.136452 136.548859,42.136452 
	C136.548859,47.032368 136.548859,51.779640 136.548859,55.273586 
	C134.350250,57.308659 132.829514,58.716274 131.308792,60.123890 
	C131.632874,60.569508 131.956955,61.015121 132.281021,61.460739 
	C137.388428,61.460739 142.495834,61.460739 148.937424,61.460739 
	C147.669449,59.523842 146.837143,58.252453 145.984131,56.046368 
z"/>
<path fill="#090909" opacity="1.000000" stroke="none" 
	d="
M118.049416,36.817223 
	C124.135307,36.817223 130.221207,36.817223 136.842743,36.817223 
	C136.842743,32.440578 137.009369,28.192457 136.722366,23.975208 
	C136.653000,22.955872 135.096603,22.027117 134.201996,21.077465 
	C133.250320,20.067205 132.272461,19.081600 131.306046,18.085232 
	C131.593399,17.661551 131.880768,17.237869 132.168121,16.814188 
	C136.906113,16.814188 141.645081,16.769680 146.380692,16.875542 
	C146.918732,16.887569 147.437866,17.744484 147.931900,18.973701 
	C146.391144,20.471144 144.884277,21.204517 142.961624,22.140244 
	C142.961624,32.735901 142.893936,43.614567 143.093094,54.488350 
	C143.108658,55.336750 144.990433,56.150963 146.004837,56.981064 
	C146.837143,58.252453 147.669449,59.523842 148.937424,61.460739 
	C142.495834,61.460739 137.388428,61.460739 132.281021,61.460739 
	C131.956955,61.015121 131.632874,60.569508 131.308792,60.123890 
	C132.829514,58.716274 134.350250,57.308659 136.548859,55.273586 
	C136.548859,51.779640 136.548859,47.032368 136.548859,42.136452 
	C129.429672,42.136452 122.635513,42.136452 115.527695,42.136452 
	C115.527695,46.763737 115.527695,51.325832 115.527695,55.517506 
	C117.330109,57.050812 119.088295,58.546494 120.846481,60.042179 
	C120.541542,60.510921 120.236595,60.979668 119.931656,61.448410 
	C114.854614,61.448410 109.777565,61.448410 104.722771,61.448410 
	C104.057999,57.664589 104.057999,57.664589 109.013458,56.402775 
	C109.013458,45.853794 109.108734,35.217937 108.882553,24.588917 
	C108.856758,23.377016 107.031097,22.201561 106.035805,21.012716 
	C105.188347,20.000444 104.334839,18.993229 102.511040,16.829416 
	C109.130623,16.829416 114.048645,16.799778 118.964607,16.886766 
	C119.349823,16.893583 119.720642,17.714161 120.057907,18.934826 
	C118.527092,20.454807 117.036507,21.196499 115.080605,22.169722 
	C115.080605,26.232946 114.958260,30.634129 115.213005,35.013374 
	C115.251053,35.667442 117.059814,36.218506 118.049416,36.817223 
z"/>
<path fill="#060606" opacity="1.000000" stroke="none" 
	d="
M132.007202,231.977707 
	C132.684433,232.742615 133.361664,233.507523 133.899261,235.025055 
	C129.440125,236.095444 125.120605,236.413223 120.801094,236.731003 
	C119.859856,235.931168 118.918625,235.131317 117.977394,234.331467 
	C119.362007,233.285828 120.746628,232.240173 122.969353,230.561615 
	C122.969353,221.469528 122.969353,211.220200 122.998947,200.098541 
	C121.126411,193.083359 116.441811,198.158096 114.476303,196.903534 
	C112.649940,198.950912 111.320419,200.441330 109.990906,201.931747 
	C109.093170,200.706161 107.738167,199.590927 107.409248,198.228073 
	C106.961662,196.373550 107.297691,194.329910 107.297691,191.883514 
	C119.596031,191.883514 131.501740,191.870483 143.406998,191.937012 
	C143.828812,191.939362 144.246201,192.730057 144.605988,193.920410 
	C143.844940,197.158859 146.571457,200.836700 141.992599,201.943359 
	C141.081284,201.493744 140.169952,201.044144 139.202515,199.888519 
	C136.983246,193.329285 132.536499,197.994324 129.013519,196.208786 
	C129.013519,207.839478 128.945038,218.636230 129.143036,229.428116 
	C129.158951,230.295212 131.009308,231.128632 132.007202,231.977707 
z"/>
<path fill="#060606" opacity="1.000000" stroke="none" 
	d="
M120.962868,149.176834 
	C119.977570,148.467987 118.992264,147.759140 118.006958,147.050293 
	C119.465324,145.856140 120.923691,144.662003 122.846626,143.087463 
	C122.846626,132.437469 122.846626,120.971207 122.846626,110.413383 
	C120.660332,108.552055 119.013672,107.150154 117.367012,105.748245 
	C117.645119,105.220184 117.923225,104.692131 118.201332,104.164070 
	C122.960548,104.164070 127.721741,104.100861 132.476349,104.248901 
	C133.032806,104.266228 133.552979,105.448471 133.997253,106.877304 
	C132.370712,108.217140 130.836899,108.770355 129.045471,109.416489 
	C129.045471,120.006210 128.957169,130.713547 129.178268,141.414474 
	C129.201080,142.518509 131.068619,143.584427 132.080200,144.668030 
	C132.743774,145.195374 133.407364,145.722702 134.062592,147.037720 
	C129.690460,148.275879 125.326660,148.726364 120.962868,149.176834 
z"/>
<path fill="#CCCCCC" opacity="1.000000" stroke="none" 
	d="
M131.990997,231.510696 
	C131.009308,231.128632 129.158951,230.295212 129.143036,229.428116 
	C128.945038,218.636230 129.013519,207.839478 129.013519,196.208786 
	C132.536499,197.994324 136.983246,193.329285 139.076874,199.590088 
	C136.893967,199.997650 134.780579,199.997650 131.974808,199.997650 
	C131.974808,210.622787 131.974808,220.833237 131.990997,231.510696 
z"/>
<path fill="#D6D6D6" opacity="1.000000" stroke="none" 
	d="
M145.994476,56.513718 
	C144.990433,56.150963 143.108658,55.336750 143.093094,54.488350 
	C142.893936,43.614567 142.961624,32.735901 142.961624,22.140244 
	C144.884277,21.204517 146.391144,20.471144 148.010696,19.355272 
	C149.051910,19.643389 150.428162,20.150127 150.754333,21.041225 
	C150.978271,21.653030 149.824066,23.511168 149.147110,23.587885 
	C145.348267,24.018402 145.979218,26.707508 145.978622,29.131096 
	C145.976379,38.102852 145.981674,47.074612 145.994476,56.513718 
z"/>
<path fill="#CCCCCC" opacity="1.000000" stroke="none" 
	d="
M132.070892,144.220322 
	C131.068619,143.584427 129.201080,142.518509 129.178268,141.414474 
	C128.957169,130.713547 129.045471,120.006210 129.045471,109.416489 
	C130.836899,108.770355 132.370712,108.217140 134.077606,107.302811 
	C135.122665,107.467651 135.994629,107.993607 136.866608,108.519554 
	C136.273468,109.329582 135.661652,110.126717 135.091217,110.952431 
	C134.038345,112.476479 132.153366,113.994301 132.111465,115.554893 
	C131.859024,124.954468 132.031403,134.365448 132.070892,144.220322 
z"/>
<path fill="#CCCCCC" opacity="1.000000" stroke="none" 
	d="
M118.027702,36.364540 
	C117.059814,36.218506 115.251053,35.667442 115.213005,35.013374 
	C114.958260,30.634129 115.080605,26.232946 115.080605,22.169722 
	C117.036507,21.196499 118.527092,20.454807 120.131721,19.324999 
	C123.522720,19.256163 124.096954,22.213310 121.896255,22.928175 
	C116.480972,24.687252 118.255135,28.579964 117.989746,31.974836 
	C117.887810,33.278786 117.994408,34.599037 118.027702,36.364540 
z"/>
<path fill="#C2C2C2" opacity="1.000000" stroke="none" 
	d="
M110.047569,202.321228 
	C111.320419,200.441330 112.649940,198.950912 114.476303,196.903534 
	C116.441811,198.158096 121.126411,193.083359 122.948517,199.635071 
	C119.216553,199.619446 115.291740,198.713821 115.480896,205.961212 
	C113.090271,204.515945 111.597252,203.613342 110.047569,202.321228 
z"/>
<path fill="#B5B5B5" opacity="1.000000" stroke="none" 
	d="
M120.893127,237.084106 
	C125.120605,236.413223 129.440125,236.095444 133.949432,235.362396 
	C135.198456,236.056519 136.257690,237.165909 137.316925,238.275284 
	C137.008087,238.759338 136.699249,239.243393 136.390411,239.727448 
	C132.115128,239.727448 127.832817,239.856140 123.570236,239.623489 
	C122.671440,239.574432 121.844963,238.200623 120.893127,237.084106 
z"/>
<path fill="#D6D6D6" opacity="1.000000" stroke="none" 
	d="
M120.990738,149.579819 
	C125.326660,148.726364 129.690460,148.275879 134.144531,147.388947 
	C135.134964,147.970032 136.035110,148.987549 136.935257,150.005066 
	C135.994354,150.648727 135.083969,151.787277 134.107086,151.847504 
	C130.523682,152.068420 126.911591,152.045959 123.326103,151.839951 
	C122.524017,151.793854 121.786072,150.631332 120.990738,149.579819 
z"/>
<path fill="#C2C2C2" opacity="1.000000" stroke="none" 
	d="
M142.040070,202.335327 
	C146.571457,200.836700 143.844940,197.158859 144.687744,194.334198 
	C150.572128,196.086365 146.662735,200.672653 147.793335,203.963577 
	C147.482040,204.408478 147.170761,204.853394 146.859467,205.298294 
	C145.268814,204.441284 143.678177,203.584290 142.040070,202.335327 
z"/>
</svg>